<?xml version="1.0" encoding="UTF-8"?>
<svg id="Layer_2" xmlns="http://www.w3.org/2000/svg" viewBox="0 0 1302.5 169.9">
  <defs>
    <style>
      .cls-1 {
        fill: #2f4ec0;
      }
    </style>
  </defs>
  <g id="Layer_1-2" data-name="Layer_1">
    <g>
      <path class="cls-1" d="M618.4,78.5h-.2l.2,4.8v1.7c0,16-4.6,29.5-13.6,39.9-9.4,11-22,16.3-38.3,16.3s-29-5.4-39-16.4c-9.4-10.4-14.2-23.8-14.2-39.8s4.8-29.4,14.2-39.8c10.1-11.1,22.9-16.4,39-16.4s21.6,2.9,29.6,8.5l7.6,5.3-7.3-36-1.6-.8c-.5-.2-11.8-5.6-29.9-5.6s-45.7,8.3-61,24.8c-14.7,16.1-22.2,36.4-22.2,60s7.5,43.9,22.2,60.1c15.2,16.5,35.2,24.8,59.3,24.8s40.6-7.1,53.9-21v18.5h31.5V2.7h-30.2v75.8h0Z"/>
      <path class="cls-1" d="M317.5,96.9c0,13.2-4.3,23.7-13,32-8.8,8.2-19.2,12.2-31.9,12.2s-22.1-3.9-29.8-11.8c-7.7-7.9-11.5-18.7-11.5-32.1V2.7h-31.5v95.3c0,21.9,7.1,39.8,21,53.2,6.2,6.2,13.4,11,21.6,14.1,8.1,3.1,17.9,4.6,29,4.6s21.7-2.8,30.6-8.4c5.7-3.6,10.9-7.8,15.5-12.5v18.4h31.5V2.7h-31.5v94.3h0v-.1Z"/>
      <path class="cls-1" d="M444.9,8c-12.3,5.6-21.7,13.3-28.2,23.1V5.1h-31.5v164.7h31.5v-72.9c0-17.2,4.9-32.1,14.6-44.4,10.3-12.8,23.2-19.1,39.5-19.1h6.6V2.6h-5.3c-10.6,0-19.8,1.8-27.3,5.4h.1Z"/>
      <path class="cls-1" d="M136.7,78.5h-.2l.2,4.8v1.7c0,16-4.6,29.5-13.6,39.9-9.4,11-22,16.3-38.3,16.3s-29-5.4-39-16.4c-9.4-10.4-14.2-23.8-14.2-39.8s4.8-29.4,14.2-39.8c10.1-11.1,22.9-16.4,39-16.4s21.6,2.9,29.6,8.5l7.6,5.3-7.3-36-1.6-.8c-.5-.2-11.8-5.6-29.9-5.6S37.5,8.5,22.2,25C7.5,41.1,0,61.4,0,85s7.5,43.9,22.2,60.1c15.2,16.5,35.2,24.8,59.3,24.8s40.6-7.1,53.9-21v18.5h31.5V2.7h-30.2v75.8h0Z"/>
      <path class="cls-1" d="M797.1,112.9c-3.4,8.3-8.8,15.2-16.1,20.5-7.3,5.2-15.7,7.8-25.2,7.8-17.9,0-31.5-5.4-41.7-16.5-9.8-10.6-14.8-24-14.8-39.8s5-29.2,14.8-39.8c4.6-5.1,10.3-9.1,16.9-12,6.7-2.9,15-4.4,24.7-4.4s17.9,2.6,25.2,7.8c7.3,5.2,12.7,12.1,16.1,20.5l2.1,5.2,22.2-22.6-.3-1.8c-.2-1.5-2.2-9.6-19.4-22.6-14.3-10.1-31.5-15.2-51-15.2s-44.8,8.3-60.3,24.8c-14.9,15.9-22.5,36.1-22.5,60.1s7.6,44.1,22.5,60.1c15.5,16.5,35.7,24.8,60.3,24.8s36.7-5.1,51.1-15.2c13.7-9.9,23.2-23.1,28.3-39.3l1.5-4.7h-33.6l-.9,2.3h.1Z"/>
      <path class="cls-1" d="M1103,8c-12.3,5.6-21.7,13.3-28.2,23.1V5.1h-31.5v164.7h31.5v-72.9c0-17.2,4.9-32.1,14.6-44.4,10.3-12.8,23.2-19.1,39.5-19.1h6.6V2.6h-5.3c-10.6,0-19.8,1.8-27.3,5.4h.1Z"/>
      <path class="cls-1" d="M980.3,78.5h-.2l.2,4.8v1.7c0,16-4.6,29.5-13.6,39.9-9.4,11-22,16.3-38.3,16.3s-29-5.4-39-16.4c-9.4-10.4-14.2-23.8-14.2-39.8s4.8-29.4,14.2-39.8c10.1-11.1,22.9-16.4,39-16.4s21.6,2.9,29.6,8.5l7.6,5.3-7.3-36-1.6-.8c-.5-.2-11.8-5.6-29.9-5.6s-45.7,8.3-61,24.8c-14.7,16.1-22.2,36.4-22.2,60s7.5,43.9,22.2,60.1c15.2,16.5,35.2,24.8,59.3,24.8s40.6-7.1,53.9-21v18.5h31.5V2.7h-30.2v75.8h0Z"/>
      <path class="cls-1" d="M1302.4,85c0-24.1-7.5-44.3-22.2-60.1-15.7-16.4-36.3-24.8-61.2-24.8s-45.6,8.3-61.2,24.8c-14.7,15.7-22.2,35.9-22.2,60.1s7.8,44.2,23.2,60.1c15.9,16.4,36.7,24.7,61.9,24.7s27.6-3.6,28-3.8l1.9-.7,6.4-36.9-7.2,4.9c-7.7,5.2-17.4,7.9-28.8,7.9s-27-4.4-36.7-13.5c-7.9-7.4-13.4-17.9-15.7-29.7h133.9v-13.1h0l-.1.1ZM1184.2,41.4c9.3-8.4,21-12.6,34.8-12.6s25.3,4.1,34.8,12.6c7.8,7.1,13,16.4,15.5,27.4h-100.5c2.5-11.1,7.6-20.3,15.4-27.4h0Z"/>
    </g>
  </g>
</svg>